<?xml version="1.0" encoding="utf-8"?>
<!-- Generator: Adobe Illustrator 15.1.0, SVG Export Plug-In . SVG Version: 6.00 Build 0)  -->
<!DOCTYPE svg PUBLIC "-//W3C//DTD SVG 1.1//EN" "http://www.w3.org/Graphics/SVG/1.1/DTD/svg11.dtd">
<svg version="1.1" id="Ebene_1" xmlns="http://www.w3.org/2000/svg" xmlns:xlink="http://www.w3.org/1999/xlink" x="0px" y="0px"
	 width="230px" height="75px" viewBox="0 0 230 75" enable-background="new 0 0 230 75" xml:space="preserve">
<g>
	<path d="M195.145,51.995h-3.487V74.59h3.487V51.995z M178.396,65.214c0.061-0.44,0.119-0.882,0.265-1.319
		c0.176-0.557,1.057-2.727,3.312-2.756c0.321,0,0.997,0.059,1.729,0.528c1.319,0.818,1.523,2.079,1.613,3.517L178.396,65.214z
		 M188.919,67.146c-0.029-0.589,0.059-2.695-0.82-4.513c-1.582-3.193-4.982-3.49-6.037-3.49c-0.969,0-3.665,0.238-5.568,2.494
		c-1.758,2.081-1.875,4.744-1.875,5.597c0,3.633,1.875,5.538,3.076,6.358c0.821,0.589,2.463,1.378,4.952,1.407
		c1.934,0,3.372-0.471,4.047-0.704c0.759-0.29,1.405-0.643,1.668-0.789v-2.961c-0.674,0.642-0.909,0.88-1.317,1.171
		c-1.495,1.114-2.872,1.231-3.635,1.231c-1.231,0-2.638-0.382-3.516-1.259c-1.112-1.056-1.437-2.667-1.525-3.078
		c-0.087-0.527-0.087-0.906-0.115-1.465H188.919z M162.958,70.809l-0.027,3.342c0.76,0.291,1.989,0.82,3.954,0.85
		c2.257,0,3.429-0.704,4.219-1.376c1.495-1.319,1.613-2.901,1.613-3.666c0-0.527-0.118-2.05-1.408-3.104
		c-0.848-0.703-2.08-1.086-3.107-1.497c-0.906-0.35-1.375-0.611-1.728-0.936c-0.352-0.295-0.557-0.762-0.557-1.26
		c0-0.235,0.057-0.735,0.442-1.2c0.673-0.794,1.989-0.851,2.194-0.851c1.024,0,1.875,0.41,2.668,1.026
		c0.265,0.176,0.497,0.348,0.732,0.555v-2.959c-1.173-0.383-2.052-0.617-3.281-0.617c-0.821,0-1.584,0.117-1.877,0.176
		c-0.938,0.205-1.552,0.529-1.876,0.733c-1.288,0.848-2.109,2.374-2.109,3.896c0,0.441,0.089,1.729,0.997,2.698
		c0.88,0.937,2.49,1.437,2.725,1.522c1.232,0.41,3.079,0.938,3.079,2.58c0,0.203-0.033,0.643-0.352,1.084
		c-0.323,0.44-0.938,1.052-2.228,1.052c-1.875,0-3.225-1.142-3.635-1.522L162.958,70.809z M156.47,72.039
		c-1.464,0.499-2.051,0.589-2.872,0.589c-0.353,0.027-1.288-0.027-2.197-0.44c-2.051-0.938-2.315-3.106-2.403-3.783
		c-0.117-0.699-0.117-1.288-0.117-1.581c0-0.496,0-3.721,2.256-5.186c0.88-0.558,1.729-0.646,2.109-0.646
		c1.937,0,2.756,1.349,2.99,1.995c0.234,0.611,0.234,1.315,0.234,1.522V72.039z M159.898,59.351l-1.875,1.116
		c-2.579-1.058-3.429-1.323-4.954-1.323c-2.9,0-5.655,1.499-6.944,4.106c-0.791,1.612-0.85,3.28-0.85,3.866
		c0,1.994,0.673,3.43,1.026,4.106c0.5,0.848,1.056,1.405,1.319,1.667c1.934,1.671,4.337,1.64,5.127,1.671
		c0.526,0.029,1.026,0.029,1.524,0.029h5.627V59.351z M132.519,56.333c0.437-0.231,1.169-0.584,2.37-0.584
		c1.615,0,3.314,0.701,4.103,2.165c0.12,0.205,0.381,0.706,0.381,1.378c0,1.116-0.817,1.995-0.993,2.2
		c-0.763,0.849-1.818,1.67-1.818,2.811c0,0.354,0.089,0.674,0.265,0.998c0.115,0.175,0.352,0.497,0.732,0.878
		c0.937,0.879,2.168,1.614,2.168,3.049c0,0.85-0.321,1.64-0.91,2.255c-0.877,0.97-2.138,1.26-3.398,1.26
		c-1.436,0-2.286-0.319-2.87-0.495L132.519,56.333z M128.942,74.59h6.475c1.467-0.029,2.082-0.119,2.813-0.294
		c2.667-0.643,3.985-2.431,4.426-3.37c0.44-0.938,0.468-1.845,0.468-2.197c0-1.905-0.819-2.901-1.349-3.459
		c-0.262-0.231-0.526-0.469-0.79-0.73l-1.143-1.055c1.2-1.292,2.462-2.611,2.462-4.485c0-0.557-0.146-1.696-1.086-2.869
		c-1.639-2.112-3.866-2.2-4.805-2.228c-0.41-0.029-0.852-0.029-1.26,0h-6.212V74.59z M111.183,59.529h-2.285v2.343h2.285V74.59
		h3.487V61.872h2.668v-2.343h-2.668v-3.021c0-0.234-0.147-1.785,1.113-2.226c0.354-0.148,0.706-0.148,0.821-0.148
		c0.322,0,0.587,0.09,0.703,0.148l0.032-2.288c-0.354,0-2.316-0.145-3.781,0.5c-2.316,1.026-2.316,3.896-2.343,4.454
		c-0.031,0.354-0.031,0.703-0.031,1.023V59.529z M104.309,66.971c-0.028,1.847-0.408,4.365-2.079,5.481
		c-0.324,0.203-0.939,0.555-1.906,0.555c-0.908,0-1.698-0.293-2.373-0.878c-1.026-0.879-1.467-2.108-1.671-3.4
		c-0.03-0.262-0.117-0.969-0.117-1.729c0-2.872,0.966-4.482,1.992-5.215c0.849-0.616,1.7-0.673,2.079-0.673
		c0.383,0,1.146,0.057,1.937,0.556C104.398,63.073,104.309,66.558,104.309,66.971 M107.913,66.999c0-1.025-0.205-1.902-0.293-2.253
		c-0.878-3.695-3.516-4.866-4.921-5.278c-1.054-0.293-1.965-0.324-2.375-0.324c-1.29,0-5.127,0.297-6.914,4.048
		c-0.821,1.641-0.88,3.253-0.88,3.896c0,4.66,2.988,7.883,7.676,7.883c3.694,0,6.564-1.935,7.414-5.595
		C107.708,69.052,107.913,68.025,107.913,66.999"/>
	<path d="M229.042,29.774h-3.163l-4.749,13.304l-4.717-13.304h-3.842l5.717,15.032c0.291,0.119,0.467,0.207,0.585,0.295
		c0.41,0.295,0.616,0.821,0.616,1.317c0,0.967-0.645,1.436-0.938,1.612c-0.88,0.469-2.607,0.234-2.666,0.234l-0.03,2.638
		c1.202,0,2.372,0,3.518-0.439c1.406-0.499,2.107-1.437,2.753-2.783c0.439-0.852,0.761-1.758,1.084-2.667L229.042,29.774z
		 M211.387,29.774h-2.636v-5.155c0-0.352,0.028-0.912-0.469-0.912c-0.115,0-0.324,0.061-0.409,0.119
		c-0.147,0.119-0.175,0.352-0.206,0.73c-0.206,1.351-0.587,2.67-1.465,3.695c-1.201,1.464-2.489,1.495-3.254,1.554v2.313h2.287
		v12.717h3.516V32.119h2.636V29.774z M196.531,26.024c0,1.144,0.937,2.052,2.051,2.052c1.146,0,2.082-0.908,2.082-2.052
		s-0.908-2.079-2.051-2.079C197.468,23.945,196.531,24.881,196.531,26.024 M200.34,29.774h-3.485v15.063h3.485V29.774z
		 M183.754,41.056l-0.027,3.342c0.761,0.292,1.992,0.821,3.957,0.851c2.255,0,3.429-0.703,4.218-1.378
		c1.494-1.319,1.614-2.901,1.614-3.664c0-0.528-0.12-2.052-1.41-3.107c-0.851-0.701-2.08-1.082-3.105-1.493
		c-0.908-0.349-1.378-0.613-1.729-0.938c-0.351-0.294-0.556-0.761-0.556-1.257c0-0.234,0.059-0.734,0.44-1.203
		c0.671-0.792,1.992-0.851,2.196-0.851c1.026,0,1.875,0.41,2.668,1.026c0.262,0.174,0.498,0.352,0.73,0.557v-2.959
		c-1.171-0.381-2.051-0.619-3.28-0.619c-0.821,0-1.582,0.119-1.876,0.176c-0.937,0.209-1.554,0.531-1.875,0.737
		c-1.288,0.848-2.11,2.37-2.11,3.895c0,0.441,0.087,1.729,0.998,2.696c0.878,0.937,2.488,1.435,2.725,1.522
		c1.23,0.412,3.075,0.938,3.075,2.58c0,0.204-0.028,0.645-0.353,1.084c-0.319,0.442-0.937,1.054-2.228,1.054
		c-1.872,0-3.22-1.14-3.633-1.522L183.754,41.056z M172.175,29.774v15.062h3.486V32.032c0.557-0.265,1.201-0.526,2.52-0.44
		c-0.117,0.176-0.321,0.41-0.321,0.909c0,0.439,0.117,0.734,0.176,0.879c0.322,0.731,1.026,1.142,1.848,1.142
		c1.317,0,2.107-0.966,2.107-2.227c0-0.703-0.294-1.172-0.408-1.379c-0.706-1.054-2.052-1.081-3.197-1.142H172.175z M158.899,35.461
		c0.059-0.441,0.117-0.881,0.263-1.321c0.176-0.557,1.054-2.724,3.313-2.753c0.319,0,0.996,0.057,1.729,0.525
		c1.316,0.823,1.521,2.082,1.61,3.518L158.899,35.461z M169.42,37.394c-0.03-0.586,0.057-2.698-0.82-4.512
		c-1.582-3.195-4.982-3.488-6.037-3.488c-0.969,0-3.663,0.234-5.566,2.491c-1.761,2.08-1.876,4.747-1.876,5.598
		c0,3.635,1.876,5.537,3.077,6.36c0.819,0.582,2.46,1.376,4.95,1.405c1.937,0,3.37-0.471,4.046-0.703
		c0.76-0.293,1.406-0.644,1.67-0.792v-2.959c-0.673,0.644-0.91,0.878-1.318,1.173c-1.497,1.111-2.872,1.228-3.636,1.228
		c-1.229,0-2.635-0.379-3.517-1.259c-1.113-1.056-1.435-2.665-1.521-3.076c-0.09-0.529-0.09-0.908-0.117-1.466H169.42z
		 M154.566,29.774h-3.135l-4.31,12.015c-0.206,0.645-0.234,0.793-0.704,0.793l-4.541-12.808h-3.781l5.566,15.062h1.789
		c1.084-0.029,1.933-0.059,2.873-0.643c1.231-0.792,1.816-2.287,2.285-3.575L154.566,29.774z M131.504,26.024
		c0,1.144,0.937,2.052,2.051,2.052c1.141,0,2.08-0.908,2.08-2.052s-0.906-2.079-2.052-2.079
		C132.44,23.945,131.504,24.881,131.504,26.024 M135.312,29.774h-3.487v15.063h3.487V29.774z M114.478,29.774v15.062h3.487V32.384
		c0.587-0.296,1.23-0.644,2.607-0.644c2.256,0,3.138,1.022,3.458,2.019c0.148,0.47,0.207,0.937,0.237,1.964v9.113h3.457v-9.113
		c-0.117-1.7-0.235-3.194-1.611-4.365c-1.67-1.435-3.87-1.583-8.147-1.583H114.478z M110.873,24.15h-3.575v11.778
		c0.028,1.815,0,2.757-0.234,3.635c-0.264,0.908-0.732,1.492-0.967,1.785c-0.469,0.528-1.173,1.175-2.727,1.437
		c-0.612,0.117-1.112,0.117-1.344,0.117c-3.077,0-4.34-1.641-4.807-2.843c-0.352-0.937-0.441-2.05-0.411-4.131V24.15h-3.576v11.018
		c-0.029,2.432,0.061,3.75,0.41,4.833c0.38,1.292,1.202,2.494,2.286,3.311c0.939,0.766,3.021,1.907,6.098,1.907
		c2.783,0,4.774-0.967,5.684-1.522c2.137-1.407,2.755-3.461,2.958-4.397c0.205-0.998,0.235-2.022,0.205-4.131V24.15z"/>
	<path d="M40.146,63.119c-0.672-0.657-1.687,0.335-1.015,0.992l4.86,4.751l1.013-0.988C45.004,67.874,40.724,63.687,40.146,63.119
		 M32.295,68.864l-1.015-0.988l4.86-4.755c0.671-0.656,1.686,0.334,1.015,0.994C36.579,64.68,32.295,68.864,32.295,68.864
		 M11.727,35.34c0.674,0.658-0.341,1.65-1.013,0.994l-4.86-4.753l1.012-0.992C6.866,30.589,11.146,34.775,11.727,35.34 M5.856,43.02
		l1.015,0.992l4.86-4.753c0.671-0.656-0.344-1.648-1.015-0.99C10.136,38.835,5.856,43.02,5.856,43.02 M36.148,11.458
		c0.672,0.66,1.684-0.33,1.013-0.988L32.3,5.716L31.287,6.71C31.287,6.71,35.568,10.896,36.148,11.458 M43.985,5.716L45,6.71
		l-4.858,4.748c-0.674,0.66-1.687-0.33-1.015-0.988C39.705,9.901,43.985,5.716,43.985,5.716 M64.554,35.333
		c-0.671,0.658,0.344,1.648,1.015,0.99l4.861-4.752l-1.013-0.991C69.417,30.58,65.136,34.768,64.554,35.333 M70.435,43.009
		l-1.014,0.988l-4.86-4.75c-0.672-0.658,0.341-1.647,1.012-0.992C66.155,38.823,70.435,43.009,70.435,43.009 M23.993,22.473
		c0.672,0.658-0.343,1.65-1.015,0.992L5.854,6.722l1.015-0.992C6.869,5.729,23.415,21.907,23.993,22.473 M69.421,5.722l1.014,0.994
		L53.309,23.459c-0.671,0.66-1.686-0.334-1.012-0.99C52.875,21.902,69.421,5.722,69.421,5.722 M22.978,51.127
		c0.672-0.656,1.687,0.338,1.013,0.992L6.866,68.862l-1.012-0.988C5.854,67.874,22.397,51.693,22.978,51.127 M70.435,67.867
		l-1.014,0.99L52.297,52.116c-0.674-0.658,0.341-1.65,1.012-0.992C53.889,51.688,70.435,67.867,70.435,67.867 M23.904,47.239
		c0.671,0.658-0.344,1.652-1.015,0.992c0,0-8.6-8.407-9.271-9.065c-0.673-0.66,0.341-1.65,1.012-0.994
		C14.63,38.172,23.326,46.674,23.904,47.239 M40.142,13.395c-0.672-0.659-1.687,0.334-1.013,0.992
		c0.671,0.656,9.271,9.067,9.271,9.067c0.673,0.654,1.687-0.334,1.015-0.992C48.837,21.896,40.142,13.395,40.142,13.395
		 M49.415,47.325c0.672,0.658-0.341,1.65-1.015,0.992c0,0-8.6-8.409-9.271-9.067c-0.674-0.658,0.341-1.65,1.013-0.992
		C40.142,38.258,48.837,46.761,49.415,47.325 M62.587,39.25c0.672-0.658-0.341-1.65-1.015-0.992
		c-0.671,0.658-9.271,9.067-9.271,9.067c-0.674,0.658,0.341,1.648,1.012,0.992C53.894,47.749,62.587,39.25,62.587,39.25
		 M27.882,23.451c-0.671,0.657-1.687-0.335-1.015-0.989c0,0,8.602-8.412,9.273-9.067c0.671-0.659,1.686,0.334,1.013,0.989
		C37.154,14.384,28.46,22.884,27.882,23.451 M37.154,39.25c0.673-0.658-0.341-1.65-1.013-0.992s-9.273,9.067-9.273,9.067
		c-0.672,0.658,0.344,1.648,1.015,0.992C28.46,47.749,37.154,39.25,37.154,39.25 M23.997,27.265c0.674-0.658-0.34-1.65-1.012-0.992
		c0,0-8.603,8.409-9.274,9.067c-0.671,0.658,0.341,1.648,1.015,0.992C14.725,36.332,23.42,27.83,23.997,27.265 M40.144,61.193
		c-0.674,0.658-1.687-0.334-1.015-0.99c0.671-0.659,9.274-9.067,9.274-9.067c0.671-0.658,1.687,0.334,1.012,0.99
		C48.837,52.694,40.144,61.193,40.144,61.193 M49.415,27.265c0.674-0.658-0.341-1.65-1.012-0.992c0,0-8.603,8.409-9.274,9.067
		s0.341,1.648,1.015,0.992C40.144,36.332,48.837,27.83,49.415,27.265 M62.587,35.34c0.672,0.658-0.341,1.65-1.015,0.994
		c-0.671-0.66-9.271-9.069-9.271-9.069c-0.674-0.654,0.341-1.65,1.012-0.99C53.894,26.839,62.587,35.34,62.587,35.34 M27.882,51.138
		c-0.671-0.658-1.687,0.334-1.015,0.992c0,0,8.602,8.409,9.273,9.067s1.686-0.336,1.013-0.992
		C37.154,60.205,28.46,51.702,27.882,51.138 M37.154,35.34c0.673,0.658-0.341,1.65-1.013,0.994c-0.671-0.66-9.273-9.069-9.273-9.069
		c-0.672-0.654,0.344-1.65,1.015-0.99C28.46,26.839,37.154,35.34,37.154,35.34 M0,49.023v1.404h22.681c0.952,0,0.952-1.404,0-1.404
		H0z M76.288,49.023v1.404H53.604c-0.952,0-0.952-1.404,0-1.404H76.288z M0,24.16v1.402h22.681c0.952,0,0.952-1.402,0-1.402H0z
		 M76.288,24.16v1.402H53.604c-0.952,0-0.952-1.402,0-1.402H76.288z M28.176,49.023c-0.949,0-0.949,1.404,0,1.404H48.11
		c0.949,0,0.949-1.404,0-1.404H28.176z M48.11,24.16c0.949,0,0.949,1.402,0,1.402H28.176c-0.949,0-0.949-1.402,0-1.402H48.11z
		 M50.141,74.59h1.432V52.412c0-0.929-1.432-0.929-1.432,0V74.59z M50.141,0h1.432v22.176c0,0.931-1.432,0.931-1.432,0V0z
		 M50.141,47.039c0,0.931,1.432,0.931,1.432,0V27.551c0-0.931-1.432-0.931-1.432,0V47.039z M24.712,52.412
		c0-0.929,1.434-0.929,1.434,0V74.59h-1.434V52.412z M24.712,22.176c0,0.931,1.432,0.931,1.432,0V0h-1.432V22.176z M24.712,27.551
		c0-0.931,1.432-0.931,1.432,0v19.488c0,0.931-1.432,0.931-1.432,0V27.551z"/>
</g>
</svg>
