<?xml version="1.0" encoding="UTF-8" standalone="no"?>
<!DOCTYPE svg PUBLIC "-//W3C//DTD SVG 1.0//EN" "http://www.w3.org/TR/2001/REC-SVG-20010904/DTD/svg10.dtd">
<!-- Created with Inkscape (http://www.inkscape.org/) by Steadfast-->
<svg
   xmlns:svg="http://www.w3.org/2000/svg"
   xmlns="http://www.w3.org/2000/svg"
   version="1.0"
   width="7000"
   height="500"
   id="svg2739">
  <defs
     id="defs2741" />
  <text x="500" y="300" font-size="200">High Performance and Web Computing</text>
  <g
     id="layer1">
    <g
       transform="matrix(1.0008663,0,0,1.0008663,146.4802,133.98829)"
       id="g2793">
      <g
         transform="translate(-126.86852,-62.165172)"
         id="g2839">
        <path
           d="M 222.86882,-61.715797 L 222.86882,40.921011 L 222.30796,42.603581 L 221.74711,43.164441 L 220.06454,43.725291 L 217.82111,42.603581 L 217.82111,-61.715797 L 222.86882,-61.715797"
           id="path17"
           style="fill:#000000;fill-opacity:1;fill-rule:evenodd;stroke:none" />
        <path
           d="M 217.82111,65.037851 L 217.82111,63.916141 L 218.94282,62.794431 L 220.06454,62.233571 L 221.74711,62.794431 L 222.86882,65.037851 L 222.86882,155.89666 L 222.30796,157.01838 L 221.74711,158.14009 L 218.94282,158.14009 L 217.82111,157.01838 L 217.82111,65.037851"
           id="path19"
           style="fill:#000000;fill-opacity:1;fill-rule:evenodd;stroke:none" />
        <path
           d="M 108.45402,-61.715797 L 108.45402,40.921011 L 107.89316,42.603581 L 105.64974,43.725291 L 103.96717,43.164441 L 103.40631,42.603581 L 102.84545,40.921011 L 102.84545,-61.715797 L 108.45402,-61.715797"
           id="path21"
           style="fill:#000000;fill-opacity:1;fill-rule:evenodd;stroke:none" />
        <path
           d="M 102.84545,65.037851 L 103.96717,62.794431 L 105.64974,62.233571 L 106.77145,62.794431 L 107.89316,63.916141 L 108.45402,65.037851 L 108.45402,155.89666 L 107.89316,157.01838 L 106.77145,158.14009 L 103.96717,158.14009 L 103.40631,157.01838 L 102.84545,155.89666 L 102.84545,65.037851"
           id="path23"
           style="fill:#000000;fill-opacity:1;fill-rule:evenodd;stroke:none" />
        <path
           d="M 102.84545,282.65032 L 102.84545,179.45265 L 103.40631,178.33094 L 103.96717,177.20923 L 106.77145,177.20923 L 107.89316,178.33094 L 107.89316,282.65032 L 102.84545,282.65032"
           id="path25"
           style="fill:#000000;fill-opacity:1;fill-rule:evenodd;stroke:none" />
        <path
           d="M 217.82111,282.65032 L 217.82111,178.33094 L 218.94282,177.20923 L 221.74711,177.20923 L 222.30796,178.33094 L 222.86882,179.45265 L 222.86882,282.65032 L 217.82111,282.65032"
           id="path27"
           style="fill:#000000;fill-opacity:1;fill-rule:evenodd;stroke:none" />
        <path
           d="M 335.04021,170.47894 L 232.4034,170.47894 L 230.72083,169.91808 L 230.15997,169.35723 L 229.59912,167.67466 L 230.72083,165.43123 L 232.4034,164.87037 L 335.04021,164.87037 L 335.04021,170.47894"
           id="path37"
           style="fill:#000000;fill-opacity:1;fill-rule:evenodd;stroke:none" />
        <path
           d="M 335.04021,55.503281 L 230.72083,55.503281 L 229.59912,53.259861 L 230.15997,51.577291 L 230.72083,50.455571 L 335.04021,50.455571 L 335.04021,55.503281"
           id="path47"
           style="fill:#000000;fill-opacity:1;fill-rule:evenodd;stroke:none" />
        <path
           d="M 117.42773,55.503291 L 116.30602,55.503291 L 115.1843,54.381571 L 114.62345,53.259861 L 115.1843,51.577291 L 116.30602,50.455571 L 209.40826,50.455571 L 210.52997,51.577291 L 211.09083,53.259861 L 210.52997,54.381571 L 209.40826,55.503291 L 117.42773,55.503291"
           id="path49"
           style="fill:#000000;fill-opacity:1;fill-rule:evenodd;stroke:none" />
        <path
           d="M 117.42773,170.47894 L 115.1843,169.35723 L 114.62345,167.67466 L 115.1843,166.55295 L 116.30602,165.43123 L 117.42773,164.87037 L 208.28654,164.87037 L 209.40826,165.43123 L 210.52997,166.55295 L 211.09083,167.67466 L 210.52997,169.35723 L 208.28654,170.47894 L 117.42773,170.47894"
           id="path51"
           style="fill:#000000;fill-opacity:1;fill-rule:evenodd;stroke:none" />
        <path
           d="M -9.3259221,164.87037 L 93.310888,164.87037 L 94.993458,165.43123 L 96.115168,167.67466 L 95.554308,169.35723 L 94.993458,169.91809 L 93.310888,170.47894 L -9.3259221,170.47894 L -9.3259221,164.87037"
           id="path53"
           style="fill:#000000;fill-opacity:1;fill-rule:evenodd;stroke:none" />
        <path
           d="M -9.3259221,50.455571 L 94.993458,50.455571 L 95.554308,51.577291 L 96.115168,53.259861 L 94.993458,55.503291 L -9.3259221,55.503291 L -9.3259221,50.455571"
           id="path55"
           style="fill:#000000;fill-opacity:1;fill-rule:evenodd;stroke:none" />
        <path
           d="M 304.75392,255.72919 L 226.79482,177.77008 L 226.23396,176.64837 L 226.23396,175.52666 L 226.79482,174.40494 L 227.91653,173.28323 L 229.5991,173.28323 L 308.11906,251.80319 L 304.75392,255.72919"
           id="path57"
           style="fill:#000000;fill-opacity:1;fill-rule:evenodd;stroke:none" />
        <path
           d="M 20.960348,255.72919 L 98.919448,177.77008 L 99.480308,176.64837 L 99.480308,175.52666 L 98.919448,174.40494 L 97.797738,173.28323 L 96.676028,173.28323 L 94.993458,174.40494 L 17.595208,251.80319 L 20.960348,255.72919"
           id="path59"
           style="fill:#000000;fill-opacity:1;fill-rule:evenodd;stroke:none" />
        <path
           d="M 20.960348,-34.794667 L 98.919448,42.603581 L 99.480308,43.725291 L 99.480308,45.407861 L 98.919448,46.529581 L 97.797738,47.090431 L 96.676028,47.090431 L 94.993458,46.529581 L 17.595208,-31.429526 L 20.960348,-34.794667"
           id="path61"
           style="fill:#000000;fill-opacity:1;fill-rule:evenodd;stroke:none" />
        <path
           d="M 308.11906,-31.429526 L 230.72082,46.529581 L 229.5991,47.090431 L 227.91653,47.090431 L 226.79482,46.529581 L 226.23396,45.407861 L 226.23396,43.725291 L 226.79482,42.603581 L 304.75392,-34.794667 L 308.11906,-31.429526"
           id="path63"
           style="fill:#000000;fill-opacity:1;fill-rule:evenodd;stroke:none" />
        <path
           d="M 115.74516,46.529581 L 114.62345,47.090431 L 113.50173,47.090431 L 111.81916,46.529581 L 111.25831,45.407861 L 111.25831,43.725291 L 111.81916,42.603581 L 155.00514,-0.021539363 L 156.12685,-0.58239936 L 157.24857,-0.58239936 L 158.37028,-0.021539363 L 158.93114,1.1001706 L 158.93114,2.2218806 L 158.37028,3.3436006 L 115.74516,46.529581"
           id="path65"
           style="fill:#000000;fill-opacity:1;fill-rule:evenodd;stroke:none" />
        <path
           d="M 209.96911,46.529581 L 211.09083,47.090431 L 212.21254,47.090431 L 213.89511,46.529581 L 214.45597,45.407861 L 214.45597,43.725291 L 213.89511,42.603581 L 170.70913,-0.021539363 L 169.58742,-0.58239936 L 168.46571,-0.58239936 L 167.34399,-0.021539363 L 166.22228,1.1001706 L 166.22228,2.2218806 L 167.34399,3.3436006 L 209.96911,46.529581"
           id="path67"
           style="fill:#000000;fill-opacity:1;fill-rule:evenodd;stroke:none" />
        <path
           d="M 193.70426,-31.429526 L 170.70913,-8.4343994 L 169.58742,-7.8735394 L 168.46571,-7.8735394 L 166.78313,-8.4343994 L 166.22228,-9.5561094 L 166.22228,-11.238679 L 166.78313,-12.360389 L 189.77827,-34.794667 L 193.70426,-31.429526"
           id="path69"
           style="fill:#000000;fill-opacity:1;fill-rule:evenodd;stroke:none" />
        <path
           d="M 132.01001,-31.429526 L 155.00514,-8.4343994 L 156.12685,-7.8735394 L 157.24857,-7.8735394 L 158.37028,-8.4343994 L 159.492,-9.5561094 L 159.492,-11.238679 L 135.93601,-34.794667 L 132.01001,-31.429526"
           id="path71"
           style="fill:#000000;fill-opacity:1;fill-rule:evenodd;stroke:none" />
        <path
           d="M 115.74516,160.94438 L 114.62345,162.06609 L 112.94088,162.06609 L 111.81916,160.94438 L 111.25831,159.82266 L 111.25831,158.70095 L 111.81916,157.57924 L 154.44428,114.39326 L 156.12685,113.8324 L 157.24857,113.8324 L 158.37028,114.39326 L 158.93114,115.51497 L 158.93114,117.19754 L 158.37028,118.31926 L 115.74516,160.94438"
           id="path73"
           style="fill:#000000;fill-opacity:1;fill-rule:evenodd;stroke:none" />
        <path
           d="M 209.96911,160.94438 L 211.09083,162.06609 L 212.21254,162.06609 L 213.89511,160.94438 L 214.45597,159.82266 L 214.45597,158.70095 L 213.89511,157.57924 L 170.70913,114.39326 L 169.58742,113.8324 L 168.46571,113.8324 L 167.34399,114.39326 L 166.78313,115.51497 L 166.78313,117.19754 L 167.34399,118.31926 L 209.96911,160.94438"
           id="path75"
           style="fill:#000000;fill-opacity:1;fill-rule:evenodd;stroke:none" />
        <path
           d="M 209.96911,59.429281 L 211.09083,58.868431 L 212.21254,58.868431 L 213.89511,59.429281 L 214.45597,60.551001 L 214.45597,62.233571 L 213.89511,63.355281 L 170.70913,105.9804 L 169.58742,107.10212 L 168.46571,107.10212 L 167.34399,105.9804 L 166.78313,104.85869 L 166.78313,103.73698 L 167.34399,102.61526 L 209.96911,59.429281"
           id="path77"
           style="fill:#000000;fill-opacity:1;fill-rule:evenodd;stroke:none" />
        <path
           d="M 115.74516,59.429281 L 114.62345,58.868431 L 112.94088,58.868431 L 111.81916,59.429281 L 111.25831,60.551001 L 111.25831,62.233571 L 111.81916,63.355281 L 154.44428,105.9804 L 156.12685,107.10212 L 157.24857,107.10212 L 158.37028,105.9804 L 158.93114,104.85869 L 158.93114,103.73698 L 158.37028,102.61526 L 115.74516,59.429281"
           id="path79"
           style="fill:#000000;fill-opacity:1;fill-rule:evenodd;stroke:none" />
        <path
           d="M 209.96911,174.40494 L 211.09083,173.84408 L 212.21254,173.84408 L 213.89511,174.40494 L 214.45597,175.52666 L 214.45597,176.64837 L 213.89511,178.33094 L 170.70913,220.95606 L 169.58742,221.51692 L 168.46571,221.51692 L 167.34399,220.95606 L 166.78313,219.83435 L 166.78313,218.15178 L 167.34399,217.03006 L 209.96911,174.40494"
           id="path81"
           style="fill:#000000;fill-opacity:1;fill-rule:evenodd;stroke:none" />
        <path
           d="M 115.74516,174.40494 L 114.62345,173.84408 L 112.94088,173.84408 L 111.81916,174.40494 L 111.25831,175.52666 L 111.25831,176.64837 L 111.81916,178.33094 L 154.44428,220.95606 L 156.12685,221.51692 L 157.24857,221.51692 L 158.37028,220.95606 L 158.93114,219.83435 L 158.93114,218.15178 L 158.37028,217.03006 L 115.74516,174.40494"
           id="path83"
           style="fill:#000000;fill-opacity:1;fill-rule:evenodd;stroke:none" />
        <path
           d="M 230.72082,160.94438 L 229.5991,162.06609 L 227.91653,162.06609 L 226.79482,160.94438 L 226.23396,159.82266 L 226.23396,158.70095 L 226.79482,157.57924 L 269.41994,114.39326 L 270.54165,113.8324 L 272.22423,113.8324 L 273.34594,114.39326 L 273.9068,115.51497 L 273.9068,117.19754 L 273.34594,118.31926 L 230.72082,160.94438"
           id="path85"
           style="fill:#000000;fill-opacity:1;fill-rule:evenodd;stroke:none" />
        <path
           d="M 230.72082,59.429281 L 229.5991,58.868431 L 227.91653,58.868431 L 226.79482,59.429281 L 226.23396,60.551001 L 226.23396,62.233571 L 226.79482,63.355281 L 270.54165,107.10212 L 272.22423,107.10212 L 273.34594,105.9804 L 273.9068,104.85869 L 273.9068,103.73698 L 273.34594,102.61526 L 230.72082,59.429281"
           id="path87"
           style="fill:#000000;fill-opacity:1;fill-rule:evenodd;stroke:none" />
        <path
           d="M 94.993458,160.94438 L 96.115168,162.06609 L 97.797738,162.06609 L 98.919448,160.94438 L 99.480308,159.82266 L 99.480308,158.70095 L 98.919448,157.57924 L 56.294328,114.39326 L 55.172618,113.8324 L 53.490048,113.8324 L 52.368328,114.39326 L 51.807478,115.51497 L 51.807478,117.19754 L 52.368328,118.31926 L 94.993458,160.94438"
           id="path89"
           style="fill:#000000;fill-opacity:1;fill-rule:evenodd;stroke:none" />
        <path
           d="M 94.993458,59.429281 L 96.115168,58.868431 L 97.797738,58.868431 L 98.919448,59.429281 L 99.480308,60.551001 L 99.480308,62.233571 L 98.919448,63.355281 L 55.172618,107.10212 L 53.490048,107.10212 L 52.368328,105.9804 L 51.807478,104.85869 L 51.807478,103.73698 L 52.368328,102.61526 L 94.993458,59.429281"
           id="path91"
           style="fill:#000000;fill-opacity:1;fill-rule:evenodd;stroke:none" />
        <path
           d="M 20.960348,79.620131 L 43.955478,102.05441 L 44.516338,103.73698 L 44.516338,104.85869 L 43.955478,105.9804 L 42.833768,106.54126 L 41.151198,106.54126 L 40.029478,105.9804 L 17.595208,83.546131 L 20.960348,79.620131"
           id="path93"
           style="fill:#000000;fill-opacity:1;fill-rule:evenodd;stroke:none" />
        <path
           d="M 20.960348,141.31439 L 43.955478,118.31926 L 44.516338,117.19754 L 44.516338,116.07583 L 43.955478,114.39326 L 42.833768,113.8324 L 41.151198,113.8324 L 40.029478,114.39326 L 17.595208,137.38839 L 20.960348,141.31439"
           id="path95"
           style="fill:#000000;fill-opacity:1;fill-rule:evenodd;stroke:none" />
        <path
           d="M 132.01001,251.80319 L 155.00514,229.36891 L 156.12685,228.80806 L 157.24857,228.80806 L 158.37028,229.36891 L 159.492,230.49063 L 159.492,231.61234 L 158.37028,233.29491 L 135.93601,255.72919 L 132.01001,251.80319"
           id="path97"
           style="fill:#000000;fill-opacity:1;fill-rule:evenodd;stroke:none" />
        <path
           d="M 193.70426,251.80319 L 170.70913,229.36891 L 169.58742,228.80806 L 168.46571,228.80806 L 166.78313,229.36891 L 166.22228,230.49063 L 166.22228,231.61234 L 166.78313,233.29491 L 189.77827,255.72919 L 193.70426,251.80319"
           id="path99"
           style="fill:#000000;fill-opacity:1;fill-rule:evenodd;stroke:none" />
        <path
           d="M 304.75392,141.31439 L 281.75879,118.31926 L 281.19793,117.19754 L 281.19793,116.07583 L 281.75879,114.39326 L 282.88051,113.8324 L 284.56308,113.8324 L 285.68479,114.39326 L 308.11906,137.38839 L 304.75392,141.31439"
           id="path101"
           style="fill:#000000;fill-opacity:1;fill-rule:evenodd;stroke:none" />
        <path
           d="M 304.75392,79.620131 L 281.75879,102.61526 L 281.19793,103.73698 L 281.19793,104.85869 L 281.75879,105.9804 L 282.88051,107.10212 L 284.56308,107.10212 L 308.11906,83.546131 L 304.75392,79.620131"
           id="path103"
           style="fill:#000000;fill-opacity:1;fill-rule:evenodd;stroke:none" />
        <path
           d="M 184.73057,380.80026 L 184.73057,386.96969 L 183.048,385.28712 L 181.36542,384.16541 L 179.122,383.04369 L 176.87857,383.04369 L 174.63514,383.60455 L 172.95257,384.16541 L 171.27,385.84798 L 170.70914,388.0914 L 171.27,390.33483 L 172.39172,392.57826 L 175.196,394.26083 L 176.31771,394.82169 L 178.00028,395.38254 L 181.36542,397.62597 L 183.60885,398.74768 C 192.78821,413.21779 178.5144,420.97631 164.53972,416.6951 L 164.53972,408.84311 C 173.71908,421.30348 191.85345,407.53444 170.14829,399.30854 C 156.25773,389.32529 172.13933,373.77086 184.73057,380.80026"
           id="path113"
           style="fill:#000000;fill-opacity:1;fill-rule:evenodd;stroke:none" />
        <path
           d="M 209.96911,380.23941 L 229.03825,380.23941 L 229.03825,384.16541 L 216.6994,384.16541 L 216.6994,395.38255 L 228.47739,395.38255 L 228.47739,399.8694 L 216.6994,399.8694 L 216.6994,412.76911 L 229.5991,412.76911 L 229.5991,417.25596 L 209.96911,417.25596 L 209.96911,380.23941"
           id="path115"
           style="fill:#000000;fill-opacity:1;fill-rule:evenodd;stroke:none" />
        <path
           d="M 251.47252,380.23941 L 258.2028,380.23941 L 258.2028,412.76911 L 271.10251,412.76911 L 271.10251,417.25596 L 251.47252,417.25596 L 251.47252,380.23941"
           id="path117"
           style="fill:#000000;fill-opacity:1;fill-rule:evenodd;stroke:none" />
        <path
           d="M 79.850318,380.23941 C 89.169888,379.63182 94.516728,390.70874 85.458888,397.06512 C 91.188978,402.06609 93.217408,403.75801 90.506598,411.64739 C 83.262198,420.73328 76.999298,415.7323 65.828898,417.25596 L 65.828898,380.23941 L 79.850318,380.23941 z M 83.776318,386.96969 L 84.337178,388.65226 L 84.898028,390.33483 L 84.337178,392.0174 L 83.215458,393.69997 C 80.439218,395.86862 77.999488,399.17768 81.532888,402.11283 C 91.628318,409.6657 80.943988,416.42403 72.559178,413.32996 L 72.559178,384.16541 L 75.363468,383.60455 L 78.167748,383.60455 L 81.532888,384.72626 L 82.093748,385.28712 L 83.215458,385.84798 L 83.776318,386.96969"
           id="path119"
           style="fill:#000000;fill-opacity:1;fill-rule:evenodd;stroke:none" />
        <path
           d="M 133.13172,380.23941 L 133.69258,380.80027 L 134.25344,381.92198 L 134.25344,383.60455 L 135.37515,385.28712 C 136.70251,389.4842 138.01118,393.5878 139.86201,397.62597 C 141.2735,403.3841 144.52647,411.26414 146.59229,417.25596 L 139.86201,417.25596 C 138.38508,412.97476 135.3845,409.03941 135.37515,404.35626 L 120.23202,404.35626 C 118.39054,407.74009 116.83883,413.99365 115.1843,417.25596 L 109.01488,417.25596 C 111.89394,410.60046 114.25889,403.86083 116.86687,397.06512 C 121.4846,387.68946 120.0918,378.60358 133.13172,380.23941 z M 133.69258,399.8694 L 121.91459,399.8694 C 123.34477,396.27057 126.10232,386.48362 128.08401,384.16541 L 128.64487,384.72626 L 129.20573,386.40884 L 129.76658,388.65226 L 130.8883,391.45655 L 131.44915,394.82169 L 132.57087,397.62597 L 133.69258,399.8694"
           id="path121"
           style="fill:#000000;fill-opacity:1;fill-rule:evenodd;stroke:none" />
        <path
           d="M 109.57573,356.12256 C 109.54769,363.05849 115.71712,364.48868 121.35373,363.97456 L 124.15801,362.85285 L 125.84058,361.73113 L 127.52315,359.48771 L 128.08401,357.24428 L 128.08401,330.32315 L 134.81429,330.32315 C 134.28148,347.10212 140.80611,367.98469 117.98859,368.46142 C 95.180408,365.86278 105.73387,347.43863 102.84545,330.32315 L 109.57573,330.32315 L 109.57573,356.12256"
           id="path123"
           style="fill:#000000;fill-opacity:1;fill-rule:evenodd;stroke:none" />
        <path
           d="M 184.73055,363.4137 L 185.29141,363.4137 L 185.29141,362.85285 L 185.85227,362.29199 L 185.85227,330.32315 L 191.46084,330.32315 L 191.46084,361.73113 L 190.89998,363.97456 L 189.21741,366.21799 L 187.53484,367.3397 L 184.73055,367.90056 L 179.68284,367.90056 C 176.93464,361.21701 174.11166,354.15022 170.70913,347.70971 L 170.14828,345.46628 L 169.02656,343.78371 L 168.46571,341.54029 L 167.34399,339.85772 L 166.78313,338.736 L 166.22228,337.05343 L 165.66142,335.93172 L 165.10056,335.37086 L 164.53971,335.37086 L 164.53971,367.90056 L 158.93114,367.90056 L 158.93114,330.32315 L 170.14828,330.32315 L 170.14828,330.88401 L 170.70913,331.44486 L 171.26999,332.56658 L 171.83085,334.24915 L 172.95256,335.93172 L 173.51342,338.17515 L 174.63513,340.97943 L 175.75684,343.22286 C 178.19657,350.299 182.10387,356.43104 184.73055,363.4137"
           id="path125"
           style="fill:#000000;fill-opacity:1;fill-rule:evenodd;stroke:none" />
        <path
           d="M 216.6994,367.90056 L 222.86882,367.90056 L 222.86882,330.32315 L 216.6994,330.32315 L 216.6994,367.90056 z"
           id="path127"
           style="fill:#000000;fill-opacity:1;fill-rule:nonzero;stroke:none" />
      </g>
    </g>
  </g>
</svg>
